<svg xmlns="http://www.w3.org/2000/svg" viewBox="0 0 28 28"><defs><style>.cls-1{fill:#343a40;}.cls-2{fill:#fff;stroke:#fff;stroke-miterlimit:10;stroke-width:0.5px;}</style></defs><title>gw</title><g id="图层_2" data-name="图层 2"><g id="图层_1-2" data-name="图层 1"><rect class="cls-1" width="28" height="28"/><path class="cls-2" d="M15.87,6.61h2.72a.64.64,0,0,0,0-1.28H15.87a.65.65,0,0,0-.64.64.62.62,0,0,0,.64.64Zm8.26-3.84A3.22,3.22,0,0,0,20.93,6a3.25,3.25,0,0,0,3.2,3.25A3.22,3.22,0,0,0,27.32,6a3.22,3.22,0,0,0-3.2-3.25Zm0,5.22a2,2,0,0,1-2-2,2,2,0,0,1,2-2,2,2,0,0,1,2,2,2,2,0,0,1-2,2Zm-8,5.12h-4c-.16,0-3.41-.48-3.41-3.46s3-3,3.3-3h1A.64.64,0,0,0,13.63,6,.68.68,0,0,0,13,5.38H12c-1.55,0-4.53.91-4.53,4.26s2.93,4.53,4.53,4.74h4c.16,0,3.41.48,3.41,3.46s-3,3-3.3,3H7a3.16,3.16,0,0,0-3.14-2.77,3.22,3.22,0,0,0,0,6.45A3.2,3.2,0,0,0,7,22.06h9.17c1.6,0,4.53-.91,4.53-4.26s-2.93-4.53-4.53-4.69ZM3.88,23.29a2,2,0,0,1,0-4,2,2,0,0,1,2,2,2,2,0,0,1-2,2Zm0,0"/></g></g></svg>