<svg xmlns="http://www.w3.org/2000/svg" viewBox="0 0 61.77 50.5"><defs><style>.cls-1{fill:#fff;stroke:#fff;stroke-miterlimit:10;stroke-width:0.5px;}</style></defs><title>gw</title><g id="图层_2" data-name="图层 2"><g id="图层_1-2" data-name="图层 1"><path class="cls-1" d="M35.18,9.07h6.25a1.47,1.47,0,0,0,0-2.94H35.18A1.49,1.49,0,0,0,33.71,7.6a1.42,1.42,0,0,0,1.47,1.47Zm19-8.82a7.4,7.4,0,0,0-7.35,7.48,7.48,7.48,0,0,0,7.35,7.48,7.4,7.4,0,0,0,7.35-7.48A7.4,7.4,0,0,0,54.17.25Zm0,12a4.6,4.6,0,0,1-4.53-4.53,4.52,4.52,0,0,1,4.53-4.53,4.6,4.6,0,0,1,4.53,4.53,4.6,4.6,0,0,1-4.53,4.53ZM35.79,24H26.6c-.37,0-7.84-1.1-7.84-8,0-6.62,6.86-6.86,7.6-6.86h2.33A1.47,1.47,0,0,0,30,7.73a1.57,1.57,0,0,0-1.35-1.47H26.35c-3.55,0-10.42,2.08-10.42,9.8S22.68,26.48,26.35,27h9.19c.37,0,7.84,1.1,7.84,8,0,6.62-6.86,6.86-7.6,6.86h-21A7.28,7.28,0,0,0,7.6,35.42a7.41,7.41,0,0,0,0,14.83,7.36,7.36,0,0,0,7.11-5.64H35.79c3.68,0,10.42-2.08,10.42-9.8S39.47,24.39,35.79,24ZM7.6,47.43a4.6,4.6,0,0,1,0-9.19,4.6,4.6,0,0,1,4.53,4.53A4.71,4.71,0,0,1,7.6,47.43Zm0,0"/></g></g></svg>