<svg xmlns="http://www.w3.org/2000/svg" viewBox="0 0 51.69 50"><defs><style>.cls-1{fill:#fff;}.cls-2{fill:#95eaff;}</style></defs><title>sz</title><g id="图层_2" data-name="图层 2"><g id="图层_1-2" data-name="图层 1"><path class="cls-1" d="M29.61,15.09a.87.87,0,0,0,0,1.73H42.07v5.31a.87.87,0,0,0,1.73,0V12.08a.87.87,0,0,0-.87-.87H40.59a4.84,4.84,0,0,0-3.46-2.53V6.85a.87.87,0,0,0-1.73,0V8.68a4.85,4.85,0,0,0-3.45,2.53H29.61a.87.87,0,0,0,0,1.73h2.9a.85.85,0,0,0,.82-.65l0,0a3.16,3.16,0,0,1,5.85.07.84.84,0,0,0,.21.31.85.85,0,0,0,.65.31h2v2.14Zm0,0"/><path class="cls-2" d="M36.66,25"/><path class="cls-1" d="M13.6,14a.87.87,0,1,0-1.73,0v34.2a.87.87,0,1,0,1.73,0Zm27,15.89a.87.87,0,0,0-1.73,0v2.95a.87.87,0,1,0,1.73,0Zm0,8.65a.87.87,0,0,0-1.73,0v2.95a.87.87,0,1,0,1.73,0Zm0,0"/><path class="cls-1" d="M29.28,12.91H12.79a.87.87,0,0,0,0,1.73H28.41v5.12H16.9a.87.87,0,1,0,0,1.73H28.41v5.19h-15a.87.87,0,1,0,0,1.73h15V33.6h-15a.87.87,0,1,0,0,1.73h15V48.9a.87.87,0,0,0,1.73,0V13.77a.87.87,0,0,0-.87-.87Zm0,0"/><path class="cls-1" d="M25.65,40.52H13.43a.87.87,0,0,0,0,1.73H25.65a.87.87,0,0,0,0-1.73Zm0,0"/><path class="cls-1" d="M43.15,29a.87.87,0,0,0-.87.87v2.95a.87.87,0,1,0,1.73,0V29.85a.87.87,0,0,0-.87-.87Zm0,8.65a.87.87,0,0,0-.87.87v2.95a.87.87,0,1,0,1.73,0V38.5a.87.87,0,0,0-.87-.87Zm0,0"/><path class="cls-1" d="M50.83,48.27H48.94A.86.86,0,0,0,49,48V25.45a.87.87,0,0,0-.87-.87h-13a.87.87,0,0,0-.87.87V48.27h-25V18.2a.87.87,0,1,0-1.73,0V48.27H5V16.18L16.44,7.66v5.25h1.73V.87a.87.87,0,1,0-1.73,0V5.5L3.63,15.06a.87.87,0,0,0-.35.69V48.27H.87A.87.87,0,1,0,.87,50h50a.87.87,0,1,0,0-1.73ZM36,48.27v-22H47.27V48a.86.86,0,0,0,.06.31Zm0,0"/></g></g></svg>