<svg xmlns="http://www.w3.org/2000/svg" viewBox="0 0 34.15 50"><defs><style>.cls-1{fill:#fff;}</style></defs><title>zm</title><g id="图层_2" data-name="图层 2"><g id="图层_1-2" data-name="图层 1"><path class="cls-1" d="M34.15,17.08A17.08,17.08,0,1,0,4.29,28.37l0,0c1.84,2.27,4.76,8.38,4.76,15.09A1.52,1.52,0,0,0,10.78,45L11,45a6.33,6.33,0,0,0,12.52-1.32,1.45,1.45,0,0,0,0-.15l.48-.06A1.52,1.52,0,0,0,25.34,42c0-6.25,2.11-10.82,3.91-12.83a1.53,1.53,0,0,0,.2-.28,17,17,0,0,0,4.71-11.76ZM12.06,41.81q-.07-1.11-.23-2.2l10.68-1.18q-.13,1.08-.18,2.17Zm11-6.5-11.81,1.3a32.36,32.36,0,0,0-1.26-4,17,17,0,0,0,13.82.16,24.6,24.6,0,0,0-.75,2.55ZM17.08,3a14,14,0,1,1-14,14,14.05,14.05,0,0,1,14-14ZM17.21,47a3.29,3.29,0,0,1-3.14-2.33l6.43-.76A3.29,3.29,0,0,1,17.21,47Zm0,0"/><path class="cls-1" d="M7.78,17.42,14,20.75a1.52,1.52,0,0,0,1.85-.33l3.33-3.75,5.71,3.27a1.52,1.52,0,1,0,1.51-2.64l-6.78-3.88a1.52,1.52,0,0,0-1.89.31l-3.35,3.77L9.22,14.74a1.52,1.52,0,0,0-1.44,2.68Zm0,0"/></g></g></svg>