<svg xmlns="http://www.w3.org/2000/svg" viewBox="0 0 28 28"><defs><style>.cls-1{fill:#343a40;}.cls-2{fill:#fff;}</style></defs><title>zm</title><g id="图层_2" data-name="图层 2"><g id="图层_1-2" data-name="图层 1"><rect class="cls-1" width="28" height="28"/><path class="cls-2" d="M23.19,10A8.89,8.89,0,1,0,7.65,15.88l0,0a14,14,0,0,1,2.48,7.86.79.79,0,0,0,.88.79l.13,0a3.29,3.29,0,0,0,6.51-.69.76.76,0,0,0,0-.08l.25,0a.79.79,0,0,0,.7-.78,10.48,10.48,0,0,1,2-6.68.8.8,0,0,0,.1-.15A8.86,8.86,0,0,0,23.19,10ZM11.69,22.88q0-.58-.12-1.15l5.56-.61q-.07.56-.09,1.13Zm5.73-3.38-6.15.68a16.85,16.85,0,0,0-.65-2.09,8.86,8.86,0,0,0,7.19.08,12.81,12.81,0,0,0-.39,1.33ZM14.3,2.69A7.31,7.31,0,1,1,7,10,7.32,7.32,0,0,1,14.3,2.69Zm.07,22.87a1.71,1.71,0,0,1-1.64-1.21L16.08,24a1.71,1.71,0,0,1-1.71,1.61Zm0,0"/><path class="cls-2" d="M9.47,10.18l3.24,1.74a.79.79,0,0,0,1-.17L15.4,9.79l3,1.7a.79.79,0,1,0,.79-1.37l-3.53-2a.79.79,0,0,0-1,.16l-1.74,2L10.21,8.78a.79.79,0,0,0-.75,1.39Zm0,0"/></g></g></svg>